<svg width="43" height="9" viewBox="0 0 43 9" fill="none" xmlns="http://www.w3.org/2000/svg">
<g clip-path="url(#clip0_1_1218)">
<path d="M8.09496 0H6.10979C6.10979 1.62908 5.36202 3.11573 4.06231 4.09496L3.27893 4.68249L6.32344 8.83086H8.82493L6.02077 5.01187C7.34718 3.69436 8.09496 1.91395 8.09496 0ZM1 0H3.02967V8.83086H1V0ZM9.41246 0H11.3264V8.83086H9.41246V0ZM28.1157 2.5549C27.3858 2.5549 26.6914 2.77745 26.2285 3.4095V2.72404H24.4125V8.83086H26.2552V5.62611C26.2552 4.7003 26.8783 4.24629 27.6261 4.24629C28.4273 4.24629 28.8902 4.727 28.8902 5.61721V8.83976H30.7151V4.94955C30.7151 3.52522 29.5846 2.5549 28.1157 2.5549ZM17.1128 2.72404V3.11573C16.5964 2.75964 15.9733 2.5549 15.2967 2.5549C13.5163 2.5549 12.0742 3.99703 12.0742 5.77745C12.0742 7.55786 13.5163 9 15.2967 9C15.9733 9 16.5964 8.79525 17.1128 8.43917V8.83086H18.9377V2.72404H17.1128ZM15.4481 7.34421C14.5312 7.34421 13.7923 6.64095 13.7923 5.77745C13.7923 4.91395 14.5312 4.21068 15.4481 4.21068C16.365 4.21068 17.1039 4.91395 17.1039 5.77745C17.1039 6.64095 16.365 7.34421 15.4481 7.34421ZM21.7685 3.51632V2.72404H19.8991V8.83086H21.7774V5.9822C21.7774 5.02077 22.819 4.50445 23.5401 4.50445H23.5579V2.72404C22.819 2.72404 22.1335 3.04451 21.7685 3.51632ZM36.3947 2.72404V3.11573C35.8783 2.75964 35.2552 2.5549 34.5786 2.5549C32.7982 2.5549 31.3561 3.99703 31.3561 5.77745C31.3561 7.55786 32.7982 9 34.5786 9C35.2552 9 35.8783 8.79525 36.3947 8.43917V8.83086H38.2196V2.72404H36.3947ZM34.73 7.34421C33.8131 7.34421 33.0742 6.64095 33.0742 5.77745C33.0742 4.91395 33.8131 4.21068 34.73 4.21068C35.6469 4.21068 36.3858 4.91395 36.3858 5.77745C36.3947 6.64095 35.6469 7.34421 34.73 7.34421ZM39.635 2.90208C39.635 2.81306 39.5727 2.75964 39.4748 2.75964H39.3056V3.22255H39.3858V3.05341H39.4748L39.546 3.22255H39.635L39.5549 3.03561C39.6083 3.0089 39.635 2.96439 39.635 2.90208ZM39.4748 2.97329H39.3858V2.83086H39.4748C39.5282 2.83086 39.5549 2.85757 39.5549 2.90208C39.5549 2.94659 39.5371 2.97329 39.4748 2.97329Z" fill="black"/>
<path d="M40.0712 0C39.8309 0 39.635 0.195846 39.635 0.436202C39.6439 0.676558 39.8309 0.872404 40.0712 0.872404C40.3116 0.872404 40.5074 0.676558 40.5074 0.436202C40.5074 0.195846 40.3116 0 40.0712 0ZM40.0712 0.792285C39.8754 0.792285 39.724 0.632048 39.724 0.436202C39.724 0.240356 39.8843 0.0801188 40.0712 0.0801188C40.2671 0.0801188 40.4184 0.240356 40.4184 0.436202C40.4184 0.632048 40.2582 0.792285 40.0712 0.792285ZM40.7923 4.10386C40.1602 4.10386 39.6439 4.62018 39.6439 5.25223C39.6439 5.88427 40.1602 6.40059 40.7923 6.40059C41.4243 6.40059 41.9406 5.88427 41.9406 5.25223C41.9406 4.61128 41.4243 4.10386 40.7923 4.10386Z" fill="black"/>
</g>
<defs>
<clipPath id="clip0_1_1218">
<rect width="42.9407" height="9" fill="white"/>
</clipPath>
</defs>
</svg>
